<svg width="96" height="135" viewBox="0 0 96 135" fill="none" xmlns="http://www.w3.org/2000/svg">
<path d="M2.26731 2.74825C2.57769 5.36156 7.90787 81.4581 9.89235 115.374C10.0496 118.061 11.1177 121.459 13.1751 124.737C15.2618 128.062 17.5253 129.038 20.2878 131.819C23.4476 135 36.6981 135 48.857 135C61.0159 135 70.0918 134.999 73.2516 131.818C76.0141 129.037 78.2776 128.062 80.3643 124.737C82.4218 121.458 83.4898 118.061 83.6471 115.373C85.6316 81.4574 93.5087 5.36143 93.8191 2.74812C93.9535 1.61659 95.0781 1.21825 95.0781 1.21825L48.857 0.837811L0.516449 0.422607C0.516449 0.422607 2.13292 1.61672 2.26731 2.74825Z" fill="#541AC5"/>
</svg>
