<svg width="186" height="52" viewBox="0 0 186 52" fill="none" xmlns="http://www.w3.org/2000/svg">
<path d="M12.2674 51.8188C11.7887 51.8188 11.3216 51.8136 10.8467 51.8044C9.86284 51.7934 8.88131 51.7198 7.91013 51.5842C7.00455 51.4502 6.12729 51.2009 5.30728 50.8445C4.49479 50.4911 3.75374 50.0278 3.1125 49.4721C2.46199 48.9231 1.9204 48.2862 1.50921 47.5869C1.09349 46.8829 0.805791 46.1285 0.656127 45.3496C0.494502 44.5128 0.407057 43.6666 0.394544 42.8184C0.384584 42.5337 0.371544 41.5857 0.371544 41.5857V10.3999C0.371544 10.3999 0.385432 9.46654 0.394623 9.19232C0.406604 8.34544 0.493541 7.50057 0.654681 6.66502C0.804622 5.88407 1.09255 5.1274 1.50849 4.42119C1.91817 3.72231 2.45675 3.085 3.10334 2.53395C3.74921 1.97767 4.49264 1.5119 5.30651 1.15362C6.12463 0.798412 7.00024 0.550874 7.90398 0.4193C8.87835 0.282364 9.86329 0.20833 10.8505 0.197819L12.2681 0.181335H173.724L175.159 0.19848C176.137 0.208469 177.113 0.281843 178.078 0.417977C178.991 0.551202 179.876 0.800466 180.703 1.15757C182.334 1.87962 183.661 3.02196 184.498 4.42448C184.907 5.12582 185.19 5.87632 185.338 6.65052C185.502 7.49292 185.593 8.34443 185.612 9.19826C185.616 9.58058 185.616 9.99125 185.616 10.3999C185.628 10.9062 185.628 11.3881 185.628 11.8739V40.1276C185.628 40.618 185.628 41.0966 185.616 41.5791C185.616 42.0181 185.616 42.4203 185.61 42.8342C185.592 43.6728 185.502 44.5091 185.341 45.3364C185.195 46.1208 184.909 46.8812 184.493 47.5909C184.079 48.2827 183.54 48.914 182.897 49.4616C182.256 50.0202 181.513 50.4863 180.699 50.842C179.874 51.2011 178.99 51.4513 178.078 51.5842C177.107 51.7205 176.126 51.7941 175.142 51.8044C174.682 51.8136 174.2 51.8188 173.732 51.8188L172.029 51.8215L12.2674 51.8188Z" fill="black"/>
<path d="M45.4378 26.4064C45.4523 25.2796 45.7516 24.1748 46.3079 23.1948C46.8641 22.2147 47.6592 21.3913 48.6192 20.8011C48.0093 19.9302 47.2048 19.2134 46.2695 18.7078C45.3342 18.2021 44.2938 17.9215 43.2311 17.8883C40.9641 17.6503 38.7664 19.2448 37.6112 19.2448C36.4337 19.2448 34.655 17.9119 32.7398 17.9513C31.5009 17.9913 30.2935 18.3516 29.2353 18.997C28.1771 19.6423 27.3041 20.5508 26.7013 21.6339C24.0905 26.1543 26.0379 32.7977 28.539 36.4516C29.7903 38.2408 31.2527 40.2394 33.1662 40.1685C35.0388 40.0909 35.7381 38.9745 37.9984 38.9745C40.2377 38.9745 40.8939 40.1685 42.8462 40.1235C44.8555 40.0908 46.1215 38.3263 47.3289 36.5201C48.228 35.2452 48.9198 33.8362 49.3788 32.3453C48.2114 31.8515 47.2152 31.0251 46.5144 29.969C45.8136 28.9129 45.4392 27.6739 45.4378 26.4064Z" fill="white"/>
<path d="M41.7501 15.4847C42.8457 14.1695 43.3854 12.479 43.2547 10.7723C41.581 10.9481 40.0349 11.7481 38.9245 13.0128C38.3816 13.6306 37.9658 14.3494 37.7009 15.1281C37.436 15.9067 37.3271 16.7299 37.3805 17.5507C38.2177 17.5593 39.0459 17.3778 39.8028 17.02C40.5597 16.6621 41.2255 16.1371 41.7501 15.4847Z" fill="white"/>
<path d="M69.1078 35.6383H62.7177L61.1832 40.1695H58.4766L64.5291 23.4053H67.3412L73.3937 40.1695H70.641L69.1078 35.6383ZM63.3795 33.5474H68.4447L65.9477 26.1936H65.8779L63.3795 33.5474Z" fill="white"/>
<path d="M86.4652 34.0587C86.4652 37.8569 84.4323 40.2972 81.3645 40.2972C80.5874 40.3378 79.8145 40.1588 79.1344 39.7806C78.4543 39.4025 77.8944 38.8404 77.5189 38.1588H77.4608V44.2127H74.952V27.9469H77.3805V29.9798H77.4266C77.8194 29.3014 78.3887 28.7423 79.074 28.3618C79.7593 27.9813 80.535 27.7937 81.3184 27.819C84.4204 27.819 86.4652 30.2711 86.4652 34.0587ZM83.8865 34.0587C83.8865 31.5842 82.6077 29.9573 80.6566 29.9573C78.7397 29.9573 77.4503 31.6185 77.4503 34.0587C77.4503 36.5214 78.7397 38.1707 80.6566 38.1707C82.6077 38.1707 83.8865 36.5557 83.8865 34.0587Z" fill="white"/>
<path d="M99.9177 34.0587C99.9177 37.8569 97.8848 40.2972 94.817 40.2972C94.0399 40.3378 93.267 40.1588 92.5869 39.7806C91.9068 39.4025 91.3469 38.8404 90.9714 38.1588H90.9133V44.2127H88.4045V27.9468H90.8329V29.9797H90.879C91.2718 29.3014 91.8411 28.7423 92.5264 28.3618C93.2117 27.9813 93.9874 27.7937 94.7708 27.819C97.8729 27.819 99.9177 30.2711 99.9177 34.0587ZM97.339 34.0587C97.339 31.5842 96.0602 29.9573 94.109 29.9573C92.1921 29.9573 90.9028 31.6185 90.9028 34.0587C90.9028 36.5214 92.1921 38.1707 94.109 38.1707C96.0602 38.1707 97.339 36.5557 97.339 34.0587H97.339Z" fill="white"/>
<path d="M108.809 35.4982C108.995 37.1606 110.61 38.2522 112.817 38.2522C114.931 38.2522 116.453 37.1606 116.453 35.6616C116.453 34.3604 115.535 33.5813 113.362 33.0473L111.19 32.5239C108.111 31.7804 106.682 30.3407 106.682 28.0046C106.682 25.1121 109.203 23.1254 112.782 23.1254C116.325 23.1254 118.753 25.1121 118.835 28.0046H116.302C116.151 26.3316 114.768 25.3218 112.747 25.3218C110.726 25.3218 109.343 26.3435 109.343 27.8306C109.343 29.0158 110.226 29.7132 112.387 30.2471L114.234 30.7006C117.673 31.514 119.102 32.8957 119.102 35.3478C119.102 38.4841 116.604 40.4485 112.631 40.4485C108.913 40.4485 106.403 38.5303 106.241 35.4981L108.809 35.4982Z" fill="white"/>
<path d="M124.517 25.0542V27.9467H126.841V29.9334H124.517V36.6715C124.517 37.7183 124.982 38.2061 126.004 38.2061C126.28 38.2013 126.555 38.1819 126.829 38.1481V40.1229C126.37 40.2088 125.903 40.2476 125.436 40.239C122.961 40.239 121.996 39.3095 121.996 36.9391V29.9334H120.219V27.9467H121.996V25.0542H124.517Z" fill="white"/>
<path d="M128.187 34.0576C128.187 30.212 130.452 27.7954 133.984 27.7954C137.528 27.7954 139.782 30.2119 139.782 34.0576C139.782 37.9138 137.54 40.3198 133.984 40.3198C130.43 40.3198 128.187 37.9138 128.187 34.0576ZM137.226 34.0576C137.226 31.4196 136.017 29.8626 133.984 29.8626C131.951 29.8626 130.744 31.4314 130.744 34.0576C130.744 36.7062 131.951 38.2513 133.984 38.2513C136.017 38.2513 137.226 36.7062 137.226 34.0576H137.226Z" fill="white"/>
<path d="M141.851 27.9467H144.243V30.0271H144.301C144.463 29.3773 144.844 28.8031 145.379 28.401C145.915 27.9989 146.572 27.7933 147.241 27.8188C147.531 27.8178 147.819 27.8492 148.101 27.9124V30.2591C147.736 30.1476 147.355 30.0964 146.974 30.1075C146.609 30.0927 146.246 30.157 145.909 30.2959C145.571 30.4348 145.268 30.645 145.02 30.9122C144.771 31.1793 144.584 31.4971 144.47 31.8436C144.356 32.1901 144.318 32.5571 144.359 32.9195V40.1692H141.851L141.851 27.9467Z" fill="white"/>
<path d="M159.668 36.5783C159.331 38.7971 157.17 40.3198 154.405 40.3198C150.85 40.3198 148.643 37.9375 148.643 34.1156C148.643 30.2818 150.862 27.7954 154.3 27.7954C157.681 27.7954 159.808 30.1183 159.808 33.8242V34.6838H151.175V34.8354C151.136 35.2852 151.192 35.7384 151.341 36.1648C151.489 36.5911 151.727 36.981 152.038 37.3084C152.349 37.6359 152.726 37.8934 153.144 38.0639C153.562 38.2344 154.012 38.314 154.463 38.2974C155.056 38.353 155.651 38.2156 156.16 37.9059C156.668 37.5962 157.063 37.1305 157.286 36.5783L159.668 36.5783ZM151.187 32.9304H157.298C157.32 32.5259 157.259 32.1212 157.118 31.7416C156.976 31.3619 156.758 31.0156 156.477 30.7243C156.195 30.433 155.856 30.2031 155.482 30.0489C155.107 29.8947 154.705 29.8196 154.3 29.8283C153.891 29.8259 153.486 29.9044 153.108 30.0593C152.73 30.2142 152.387 30.4424 152.097 30.7308C151.808 31.0192 151.578 31.3621 151.422 31.7396C151.266 32.1171 151.186 32.5219 151.187 32.9304V32.9304Z" fill="white"/>
<path d="M61.5965 14.1911H62.6736C62.859 14.2142 63.0472 14.1986 63.2263 14.1454C63.4054 14.0921 63.5715 14.0024 63.7142 13.8817C63.8569 13.7611 63.973 13.6122 64.0553 13.4444C64.1376 13.2767 64.1843 13.0937 64.1923 12.907C64.1923 12.1641 63.6333 11.6843 62.6854 11.6843C62.4955 11.6577 62.3021 11.6695 62.1168 11.7189C61.9315 11.7684 61.7579 11.8544 61.6064 11.972C61.4549 12.0896 61.3284 12.2364 61.2346 12.4037C61.1407 12.5709 61.0813 12.7553 61.0599 12.9459H59.8773C59.8977 12.5999 59.989 12.2618 60.1457 11.9527C60.3024 11.6435 60.5211 11.3699 60.7881 11.1489C61.0551 10.9279 61.3647 10.7642 61.6977 10.6681C62.0307 10.5719 62.3799 10.5454 62.7236 10.59C64.3096 10.59 65.4263 11.4779 65.4263 12.7561C65.4301 13.1843 65.2868 13.6008 65.0205 13.9361C64.7541 14.2714 64.3809 14.5052 63.9629 14.5985V14.6934C64.4584 14.7154 64.925 14.9326 65.2607 15.2976C65.5964 15.6626 65.774 16.1457 65.7546 16.6413C65.7179 16.9975 65.6105 17.3429 65.4386 17.6571C65.2668 17.9713 65.0339 18.248 64.7537 18.4711C64.4735 18.6941 64.1516 18.859 63.8069 18.956C63.4621 19.053 63.1015 19.0802 62.7461 19.0361C62.3899 19.0846 62.0277 19.061 61.6809 18.9665C61.3341 18.8721 61.0098 18.7088 60.7275 18.4863C60.4451 18.2639 60.2104 17.9869 60.0374 17.6718C59.8644 17.3568 59.7566 17.0101 59.7205 16.6525H60.9215C60.994 17.4231 61.702 17.9201 62.7461 17.9201C63.7902 17.9201 64.4718 17.3618 64.4718 16.5748C64.4718 15.7765 63.8298 15.2847 62.7079 15.2847H61.5965V14.1911Z" fill="white"/>
<path d="M67.1191 17.1218C67.1191 16.0275 67.9351 15.3967 69.38 15.3071L71.0267 15.2121V14.6874C71.0267 14.0454 70.6035 13.6829 69.7821 13.6829C69.1124 13.6829 68.6497 13.9287 68.5152 14.3585H67.3537C67.4763 13.3144 68.4598 12.6447 69.8388 12.6447C71.3628 12.6447 72.2224 13.4034 72.2224 14.6874V18.8409H71.0662V17.9866H70.9713C70.7786 18.2931 70.5081 18.5429 70.1873 18.7106C69.8665 18.8782 69.507 18.9578 69.1454 18.9411C68.8902 18.9676 68.6323 18.9404 68.3882 18.8611C68.1442 18.7819 67.9195 18.6524 67.7286 18.481C67.5377 18.3096 67.3848 18.1001 67.2798 17.866C67.1748 17.6319 67.1201 17.3783 67.1191 17.1218ZM71.0267 16.6023V16.0941L69.5421 16.189C68.705 16.2451 68.3253 16.5298 68.3253 17.0657C68.3253 17.6128 68.7999 17.9312 69.4525 17.9312C69.6438 17.9506 69.8369 17.9313 70.0205 17.8745C70.2042 17.8177 70.3745 17.7245 70.5213 17.6005C70.6682 17.4765 70.7886 17.3243 70.8754 17.1528C70.9622 16.9813 71.0137 16.7941 71.0267 16.6023Z" fill="white"/>
<path d="M75.4062 13.7712V18.8402H74.2065V12.7613H78.2091V13.7711L75.4062 13.7712Z" fill="white"/>
<path d="M85.4798 15.8001C85.4798 17.7315 84.5029 18.9425 82.9683 18.9425C82.5916 18.9682 82.2154 18.8857 81.884 18.7048C81.5526 18.524 81.2797 18.2521 81.0976 17.9214H81.0026V20.8633H79.8029V12.7633H80.9578V13.7679H81.0475C81.2329 13.4256 81.5093 13.1413 81.8462 12.9462C82.183 12.7511 82.5673 12.6529 82.9565 12.6625C84.5029 12.6625 85.4798 13.8681 85.4798 15.8001ZM84.2458 15.8001C84.2458 14.5161 83.638 13.7402 82.6216 13.7402C81.6118 13.7402 80.9802 14.5325 80.9802 15.8054C80.9802 17.0724 81.6117 17.8654 82.6163 17.8654C83.638 17.8653 84.2458 17.0895 84.2458 15.8001Z" fill="white"/>
<path d="M87.0776 21.0175V19.9846C87.2074 20.0011 87.3383 20.0085 87.4691 20.007C87.7247 20.0259 87.9783 19.9498 88.1812 19.7932C88.3841 19.6366 88.5221 19.4107 88.5686 19.1586L88.6583 18.8626L86.4579 12.7613H87.7644L89.2885 17.5898H89.3834L90.9022 12.7613H92.1744L89.9081 19.0914C89.3887 20.5706 88.8139 21.0452 87.5747 21.0452C87.4744 21.0452 87.1897 21.034 87.0776 21.0175Z" fill="white"/>
<path d="M93.1091 17.1155H94.3035C94.4208 17.6514 94.9232 17.9309 95.6258 17.9309C96.4248 17.9309 96.9152 17.5789 96.9152 17.0318C96.9152 16.4458 96.4748 16.1663 95.6258 16.1663H94.7162V15.2342H95.61C96.3351 15.2342 96.7042 14.9554 96.7042 14.4472C96.7042 14.0009 96.347 13.6601 95.61 13.6601C94.939 13.6601 94.4485 13.9449 94.3707 14.4248H93.2146C93.301 13.8734 93.6004 13.3779 94.0484 13.0449C94.4963 12.712 95.0571 12.5681 95.61 12.6443C97.0549 12.6443 97.8815 13.2976 97.8815 14.3246C97.8883 14.6106 97.7966 14.8902 97.6219 15.1167C97.4472 15.3433 97.2001 15.503 96.9218 15.5691V15.664C97.2531 15.7068 97.5572 15.8697 97.7764 16.1218C97.9956 16.3739 98.1147 16.6978 98.1109 17.0318C98.1109 18.1874 97.1274 18.952 95.6258 18.952C94.2982 18.952 93.2198 18.3436 93.1091 17.1155Z" fill="white"/>
<path d="M99.8386 18.8402V12.7613H101.028V16.9425H101.123L103.924 12.7613H105.113V18.8402H103.924V14.6367H103.835L101.028 18.8402L99.8386 18.8402Z" fill="white"/>
<path d="M111.664 13.7731H109.75V18.8422H108.549V13.7731H106.635V12.7633H111.664V13.7731Z" fill="white"/>
<path d="M118.127 17.1997C117.963 17.7552 117.61 18.2357 117.128 18.5571C116.647 18.8786 116.067 19.0206 115.491 18.9584C115.091 18.9689 114.693 18.8922 114.325 18.7336C113.957 18.5749 113.628 18.3381 113.361 18.0395C113.094 17.741 112.895 17.3879 112.778 17.0047C112.661 16.6216 112.629 16.2175 112.683 15.8207C112.63 15.4226 112.663 15.0177 112.78 14.6334C112.896 14.2491 113.094 13.8943 113.36 13.5932C113.626 13.292 113.953 13.0515 114.32 12.8879C114.687 12.7242 115.085 12.6413 115.486 12.6448C117.178 12.6448 118.199 13.8004 118.199 15.7092V16.1279H113.907V16.1951C113.888 16.4182 113.916 16.6429 113.989 16.8546C114.062 17.0663 114.178 17.2604 114.331 17.4244C114.483 17.5884 114.668 17.7187 114.874 17.8069C115.08 17.8951 115.302 17.9393 115.526 17.9366C115.813 17.9709 116.103 17.9191 116.36 17.7879C116.618 17.6567 116.83 17.4519 116.971 17.1996L118.127 17.1997ZM113.907 15.2406H116.976C116.991 15.0367 116.963 14.8319 116.895 14.6393C116.826 14.4467 116.718 14.2706 116.577 14.1223C116.436 13.974 116.266 13.8568 116.077 13.7782C115.888 13.6995 115.685 13.6613 115.481 13.6658C115.273 13.663 115.067 13.7018 114.875 13.78C114.683 13.8581 114.508 13.974 114.361 14.1208C114.215 14.2676 114.099 14.4424 114.021 14.6347C113.943 14.827 113.904 15.0331 113.907 15.2406H113.907Z" fill="white"/>
<path d="M123.213 12.7613H125.954C127.143 12.7613 127.84 13.3638 127.84 14.307C127.842 14.6063 127.741 14.8972 127.554 15.1309C127.367 15.3647 127.106 15.5271 126.813 15.5911V15.686C127.168 15.7085 127.501 15.8664 127.743 16.1272C127.985 16.388 128.118 16.7317 128.113 17.0874C128.113 18.1481 127.316 18.8402 125.982 18.8402H123.213V12.7613ZM124.402 13.6822V15.2563H125.591C126.316 15.2563 126.663 14.9774 126.663 14.4633C126.663 13.9893 126.361 13.6821 125.725 13.6821L124.402 13.6822ZM124.402 16.1383V17.9194H125.825C126.534 17.9194 126.914 17.6063 126.914 17.0315C126.914 16.423 126.484 16.1383 125.674 16.1383L124.402 16.1383Z" fill="white"/>
</svg>
