<svg width="399" height="74" viewBox="0 0 399 74" fill="none" xmlns="http://www.w3.org/2000/svg">
<path d="M30.0125 4.47105H0.762451V71.5554H30.0125V34.1264C30.0125 30.0955 33.5875 24.9131 43.0125 24.9131C52.3761 24.9131 56.3375 29.8076 56.3375 34.1264V71.5554H82.6625V22.3218C82.6625 15.6998 75.6425 2.74356 56.6625 2.74356C37.6825 2.74356 32.5041 18.0991 32.2875 25.7768H30.0125V4.47105Z" fill="#541AC5"/>
<path d="M127.187 71.5554H97.9375V34.7022H120.362V32.9748C114.837 32.9748 96.3125 29.2319 96.3125 17.7153C96.3125 6.19865 115.162 0.440234 136.937 0.152318C154.357 -0.0780143 166.729 3.31939 170.737 5.04688V27.2164C164.887 25.7769 149.612 22.3218 139.212 22.3218C133.037 22.3218 124.912 24.0494 124.912 28.656C124.912 32.802 129.462 34.7022 133.687 34.7022H168.462V56.2959H127.187V71.5554Z" fill="#541AC5"/>
<path d="M264.662 4.47116H181.462V26.3527H208.762V71.5554H237.687V26.3527H264.662V4.47116Z" fill="#541AC5"/>
<path fill-rule="evenodd" clip-rule="evenodd" d="M325.437 51.9772V70.1159C321.971 71.4595 311.787 73.8588 298.787 73.8588C282.537 73.8588 261.737 65.7972 261.737 45.3552C261.737 22.6098 290.012 16.2757 311.462 22.6098C331.287 28.4641 330.312 46.6302 313.737 50.8256C302.362 53.7047 288.062 53.1289 284.812 44.4914H283.512V48.5223C283.512 51.1135 289.947 56.5839 300.087 56.5839C313.087 56.5839 317.962 54.8564 325.437 51.9772ZM293.262 43.6277C297.032 43.6277 300.087 42.3386 300.087 40.7485C300.087 39.1584 297.032 37.8694 293.262 37.8694C289.493 37.8694 286.437 39.1584 286.437 40.7485C286.437 42.3386 289.493 43.6277 293.262 43.6277Z" fill="#541AC5"/>
<path fill-rule="evenodd" clip-rule="evenodd" d="M334.537 42.1881V23.1857C337.462 22.226 346.432 20.3065 358.912 20.3065C374.512 20.3065 395.312 25.2011 398.237 43.9156V71.5554H376.462V62.6301H375.162C374.512 66.373 369.767 73.8588 355.987 73.8588C338.762 73.8588 333.887 66.0851 333.887 58.3114C333.887 50.5377 336.487 41.9002 355.987 41.9002C370.612 41.9002 374.837 50.5377 374.837 52.2652H376.462V50.8256C376.462 45.0673 370.027 37.5815 355.987 37.5815C345.587 37.5815 339.412 39.5969 334.537 42.1881ZM367.362 60.3268C371.491 60.3268 374.837 58.7799 374.837 56.8718C374.837 54.9637 371.491 53.4168 367.362 53.4168C363.234 53.4168 359.887 54.9637 359.887 56.8718C359.887 58.7799 363.234 60.3268 367.362 60.3268Z" fill="#541AC5"/>
</svg>
