<svg width="22" height="28" viewBox="0 0 22 28" fill="none" xmlns="http://www.w3.org/2000/svg">
<path fill-rule="evenodd" clip-rule="evenodd" d="M11 24.2001C8.15998 21.5334 2.99998 15.7867 2.99998 11.3334C2.99998 9.21168 3.84283 7.17685 5.34313 5.67656C6.84342 4.17627 8.87825 3.33341 11 3.33341C13.1217 3.33341 15.1565 4.17627 16.6568 5.67656C18.1571 7.17685 19 9.21168 19 11.3334C19 15.7867 13.84 21.5467 11 24.2001ZM8.03694 6.89891C8.914 6.31288 9.94515 6.00008 11 6.00008C12.4145 6.00008 13.771 6.56198 14.7712 7.56218C15.7714 8.56237 16.3333 9.91893 16.3333 11.3334C16.3333 12.3882 16.0205 13.4194 15.4345 14.2965C14.8484 15.1735 14.0155 15.8571 13.041 16.2608C12.0664 16.6644 10.9941 16.7701 9.9595 16.5643C8.92493 16.3585 7.97462 15.8505 7.22874 15.1047C6.48286 14.3588 5.97491 13.4085 5.76912 12.3739C5.56334 11.3393 5.66895 10.267 6.07262 9.29244C6.47629 8.3179 7.15988 7.48494 8.03694 6.89891Z" fill="#80807F"/>
<path fill-rule="evenodd" clip-rule="evenodd" d="M3.45751 3.79094C5.4579 1.79055 8.171 0.666748 11 0.666748C13.829 0.666748 16.5421 1.79055 18.5425 3.79094C20.5428 5.79133 21.6666 8.50444 21.6666 11.3334C21.6666 18.5334 12.3333 26.6667 11.8666 27.0134C11.6251 27.22 11.3178 27.3335 11 27.3335C10.6822 27.3335 10.3748 27.22 10.1333 27.0134L10.1311 27.0115C9.69998 26.6379 0.333313 18.5206 0.333313 11.3334C0.333313 8.50444 1.45712 5.79133 3.45751 3.79094ZM2.99998 11.3334C2.99998 15.7867 8.15998 21.5334 11 24.2001C13.84 21.5467 19 15.7867 19 11.3334C19 9.21168 18.1571 7.17685 16.6568 5.67656C15.1565 4.17627 13.1217 3.33341 11 3.33341C8.87825 3.33341 6.84342 4.17627 5.34313 5.67656C3.84283 7.17685 2.99998 9.21168 2.99998 11.3334Z" fill="#80807F"/>
<path fill-rule="evenodd" clip-rule="evenodd" d="M11 6.00008C9.94515 6.00008 8.914 6.31288 8.03694 6.89891C7.15988 7.48494 6.47629 8.3179 6.07262 9.29244C5.66895 10.267 5.56334 11.3393 5.76912 12.3739C5.97491 13.4085 6.48286 14.3588 7.22874 15.1047C7.97462 15.8505 8.92493 16.3585 9.9595 16.5643C10.9941 16.7701 12.0664 16.6644 13.041 16.2608C14.0155 15.8571 14.8484 15.1735 15.4345 14.2965C16.0205 13.4194 16.3333 12.3882 16.3333 11.3334C16.3333 9.91893 15.7714 8.56237 14.7712 7.56218C13.771 6.56198 12.4145 6.00008 11 6.00008ZM9.51846 13.5507C9.95699 13.8437 10.4726 14.0001 11 14.0001C11.7072 14.0001 12.3855 13.7191 12.8856 13.219C13.3857 12.7189 13.6666 12.0407 13.6666 11.3334C13.6666 10.806 13.5102 10.2904 13.2172 9.85189C12.9242 9.41336 12.5077 9.07157 12.0205 8.86974C11.5332 8.6679 10.997 8.61509 10.4797 8.71799C9.96246 8.82088 9.4873 9.07486 9.11436 9.4478C8.74142 9.82074 8.48745 10.2959 8.38455 10.8132C8.28166 11.3305 8.33447 11.8666 8.5363 12.3539C8.73813 12.8412 9.07993 13.2577 9.51846 13.5507Z" fill="#80807F"/>
</svg>
