<?xml version="1.0" encoding="UTF-8" standalone="no"?>
<svg
   width="16"
   height="20"
   viewBox="0 0 16 20"
   fill="none"
   version="1.1"
   id="svg68"
   sodipodi:docname="pin.svg"
   inkscape:version="1.2.1 (9c6d41e4, 2022-07-14)"
   xmlns:inkscape="http://www.inkscape.org/namespaces/inkscape"
   xmlns:sodipodi="http://sodipodi.sourceforge.net/DTD/sodipodi-0.dtd"
   xmlns="http://www.w3.org/2000/svg"
>
  <defs
     id="defs72" />
  <sodipodi:namedview
     id="namedview70"
     pagecolor="#ffffff"
     bordercolor="#666666"
     borderopacity="1.0"
     inkscape:showpageshadow="2"
     inkscape:pageopacity="0.0"
     inkscape:pagecheckerboard="0"
     inkscape:deskcolor="#d1d1d1"
     showgrid="false"
     inkscape:zoom="11.8"
     inkscape:cx="7.9661017"
     inkscape:cy="10"
     inkscape:window-width="706"
     inkscape:window-height="480"
     inkscape:window-x="0"
     inkscape:window-y="25"
     inkscape:window-maximized="0"
     inkscape:current-layer="svg68" />
  <path
     fill-rule="evenodd"
     clip-rule="evenodd"
     d="M8 17.65C5.87 15.65 2 11.34 2 8C2 6.4087 2.63214 4.88258 3.75736 3.75736C4.88258 2.63214 6.4087 2 8 2C9.5913 2 11.1174 2.63214 12.2426 3.75736C13.3679 4.88258 14 6.4087 14 8C14 11.34 10.13 15.66 8 17.65ZM5.77772 4.67412C6.43552 4.2346 7.20887 4 8 4C9.06087 4 10.0783 4.42143 10.8284 5.17157C11.5786 5.92172 12 6.93913 12 8C12 8.79113 11.7654 9.56448 11.3259 10.2223C10.8864 10.8801 10.2616 11.3928 9.53073 11.6955C8.79983 11.9983 7.99556 12.0775 7.21964 11.9231C6.44371 11.7688 5.73098 11.3878 5.17157 10.8284C4.61216 10.269 4.2312 9.55628 4.07686 8.78036C3.92252 8.00444 4.00173 7.20017 4.30448 6.46927C4.60723 5.73836 5.11992 5.11365 5.77772 4.67412Z"
     fill="#09090A"
     id="path62" />
  <path
     fill-rule="evenodd"
     clip-rule="evenodd"
     d="M2.34315 2.34315C3.84344 0.842855 5.87827 0 8 0C10.1217 0 12.1566 0.842855 13.6569 2.34315C15.1571 3.84344 16 5.87827 16 8C16 13.4 9 19.5 8.65 19.76C8.46887 19.9149 8.23835 20.0001 8 20.0001C7.76165 20.0001 7.53113 19.9149 7.35 19.76L7.34834 19.7586C7.025 19.4784 0 13.3904 0 8C0 5.87827 0.842855 3.84344 2.34315 2.34315ZM2 8C2 11.34 5.87 15.65 8 17.65C10.13 15.66 14 11.34 14 8C14 6.4087 13.3679 4.88258 12.2426 3.75736C11.1174 2.63214 9.5913 2 8 2C6.4087 2 4.88258 2.63214 3.75736 3.75736C2.63214 4.88258 2 6.4087 2 8Z"
     fill="#09090A"
     id="path64" />
  <path
     fill-rule="evenodd"
     clip-rule="evenodd"
     d="M8 4C7.20887 4 6.43552 4.2346 5.77772 4.67412C5.11992 5.11365 4.60723 5.73836 4.30448 6.46927C4.00173 7.20017 3.92252 8.00444 4.07686 8.78036C4.2312 9.55628 4.61216 10.269 5.17157 10.8284C5.73098 11.3878 6.44371 11.7688 7.21964 11.9231C7.99556 12.0775 8.79983 11.9983 9.53073 11.6955C10.2616 11.3928 10.8864 10.8801 11.3259 10.2223C11.7654 9.56448 12 8.79113 12 8C12 6.93913 11.5786 5.92172 10.8284 5.17157C10.0783 4.42143 9.06087 4 8 4ZM6.88886 9.66294C7.21776 9.8827 7.60444 10 8 10C8.53043 10 9.03914 9.78929 9.41421 9.41421C9.78929 9.03914 10 8.53043 10 8C10 7.60444 9.8827 7.21776 9.66294 6.88886C9.44318 6.55996 9.13082 6.30362 8.76537 6.15224C8.39991 6.00087 7.99778 5.96126 7.60982 6.03843C7.22186 6.1156 6.86549 6.30608 6.58579 6.58579C6.30608 6.86549 6.1156 7.22186 6.03843 7.60982C5.96126 7.99778 6.00087 8.39991 6.15224 8.76537C6.30362 9.13082 6.55996 9.44318 6.88886 9.66294Z"
     fill="#09090A"
     id="path66" />
  <path
     style="fill:#ffffff;fill-rule:evenodd;stroke-width:0.383718"
     d="M 7.6427326,9.9018464 C 6.1060558,9.6312581 5.5228533,7.659005 6.6659676,6.5986578 7.4649792,5.8574984 8.5926586,5.876334 9.3599803,6.6436556 9.8065009,7.0901763 9.9442721,7.4814917 9.8999613,8.1773796 9.8733605,8.5951375 9.8118953,8.788935 9.6166358,9.0706945 9.1581664,9.7322662 8.4273233,10.040002 7.6427326,9.9018464 Z"
     id="path193" />
</svg>
