<svg width="24" height="24" viewBox="0 0 24 24" fill="none" xmlns="http://www.w3.org/2000/svg">
  <path d="M21.98 9.67185C21.9168 9.48894 21.8019 9.32828 21.6493 9.20936C21.4966 9.09043 21.3128 9.01835 21.12 9.00185L15.43 8.17185L12.88 3.00185C12.7981 2.83278 12.6702 2.6902 12.511 2.59043C12.3519 2.49066 12.1678 2.43774 11.98 2.43774C11.7921 2.43774 11.608 2.49066 11.4489 2.59043C11.2897 2.6902 11.1618 2.83278 11.08 3.00185L8.52996 8.16185L2.83996 9.00185C2.65488 9.02816 2.48088 9.10582 2.33771 9.22601C2.19453 9.34621 2.08792 9.50413 2.02996 9.68185C1.9769 9.85553 1.97214 10.0404 2.01619 10.2165C2.06023 10.3927 2.15142 10.5536 2.27996 10.6819L6.40996 14.6819L5.40996 20.3619C5.37426 20.5493 5.39295 20.7431 5.46383 20.9203C5.53471 21.0975 5.65481 21.2507 5.80996 21.3619C5.96118 21.47 6.13953 21.5338 6.32501 21.5461C6.51048 21.5585 6.69573 21.5189 6.85996 21.4319L11.98 18.7619L17.08 21.4419C17.2203 21.521 17.3788 21.5624 17.54 21.5619C17.7518 21.5626 17.9584 21.4961 18.13 21.3719C18.2851 21.2607 18.4052 21.1075 18.4761 20.9303C18.547 20.7531 18.5657 20.5593 18.53 20.3719L17.53 14.6919L21.66 10.6919C21.8043 10.5695 21.9111 10.4088 21.9677 10.2282C22.0243 10.0476 22.0286 9.85473 21.98 9.67185ZM15.83 13.6719C15.7127 13.7853 15.6249 13.9257 15.5744 14.0808C15.5238 14.236 15.512 14.4011 15.54 14.5619L16.26 18.7519L12.5 16.7519C12.3553 16.6748 12.1939 16.6345 12.03 16.6345C11.866 16.6345 11.7046 16.6748 11.56 16.7519L7.79996 18.7519L8.51996 14.5619C8.54789 14.4011 8.53607 14.236 8.48552 14.0808C8.43497 13.9257 8.34723 13.7853 8.22996 13.6719L5.22996 10.6719L9.43996 10.0619C9.60196 10.0393 9.75596 9.9774 9.88846 9.88151C10.021 9.78562 10.1279 9.65869 10.2 9.51185L11.98 5.70185L13.86 9.52185C13.932 9.66869 14.039 9.79562 14.1715 9.89151C14.304 9.9874 14.458 10.0493 14.62 10.0719L18.83 10.6819L15.83 13.6719Z" />
</svg>
