<svg width="32" height="32" viewBox="0 0 32 32" fill="none" xmlns="http://www.w3.org/2000/svg">
<rect width="32" height="32" rx="16" fill="#92DE6E"/>
<path d="M25.98 13.672C25.9168 13.4891 25.8019 13.3284 25.6493 13.2095C25.4966 13.0906 25.3128 13.0185 25.12 13.002L19.43 12.172L16.88 7.00198C16.7981 6.83291 16.6702 6.69032 16.511 6.59055C16.3519 6.49078 16.1678 6.43787 15.98 6.43787C15.7921 6.43787 15.608 6.49078 15.4489 6.59055C15.2897 6.69032 15.1618 6.83291 15.08 7.00198L12.53 12.162L6.83996 13.002C6.65488 13.0283 6.48088 13.1059 6.33771 13.2261C6.19453 13.3463 6.08792 13.5043 6.02996 13.682C5.9769 13.8557 5.97214 14.0405 6.01619 14.2167C6.06023 14.3928 6.15142 14.5537 6.27996 14.682L10.41 18.682L9.40996 24.362C9.37426 24.5495 9.39295 24.7432 9.46383 24.9204C9.53471 25.0976 9.65481 25.2508 9.80996 25.362C9.96118 25.4701 10.1395 25.5339 10.325 25.5463C10.5105 25.5586 10.6957 25.5191 10.86 25.432L15.98 22.762L21.08 25.442C21.2203 25.5212 21.3788 25.5625 21.54 25.562C21.7518 25.5627 21.9584 25.4962 22.13 25.372C22.2851 25.2608 22.4052 25.1076 22.4761 24.9304C22.547 24.7532 22.5657 24.5595 22.53 24.372L21.53 18.692L25.66 14.692C25.8043 14.5697 25.9111 14.4089 25.9677 14.2283C26.0243 14.0478 26.0286 13.8549 25.98 13.672ZM19.83 17.672C19.7127 17.7854 19.6249 17.9258 19.5744 18.0809C19.5238 18.2361 19.512 18.4012 19.54 18.562L20.26 22.752L16.5 20.752C16.3553 20.6749 16.1939 20.6346 16.03 20.6346C15.866 20.6346 15.7046 20.6749 15.56 20.752L11.8 22.752L12.52 18.562C12.5479 18.4012 12.5361 18.2361 12.4855 18.0809C12.435 17.9258 12.3472 17.7854 12.23 17.672L9.22996 14.672L13.44 14.062C13.602 14.0394 13.756 13.9775 13.8885 13.8816C14.021 13.7857 14.1279 13.6588 14.2 13.512L15.98 9.70198L17.86 13.522C17.932 13.6688 18.039 13.7957 18.1715 13.8916C18.304 13.9875 18.458 14.0494 18.62 14.072L22.83 14.682L19.83 17.672Z" fill="#09090A"/>
</svg>
