<svg width="24" height="24" viewBox="0 0 24 24" fill="none" xmlns="http://www.w3.org/2000/svg">
    <path d="M12 14C11.7348 14 11.4804 13.8946 11.2929 13.7071C11.1054 13.5196 11 13.2652 11 13V7C11 6.73478 11.1054 6.48043 11.2929 6.29289C11.4804 6.10536 11.7348 6 12 6C12.2652 6 12.5196 6.10536 12.7071 6.29289C12.8946 6.48043 13 6.73478 13 7V13C13 13.2652 12.8946 13.5196 12.7071 13.7071C12.5196 13.8946 12.2652 14 12 14ZM12 18C11.7528 18 11.5111 17.9267 11.3055 17.7893C11.1 17.652 10.9398 17.4568 10.8452 17.2284C10.7505 16.9999 10.7258 16.7486 10.774 16.5061C10.8223 16.2637 10.9413 16.0409 11.1161 15.8661C11.2909 15.6913 11.5137 15.5722 11.7561 15.524C11.9986 15.4758 12.2499 15.5005 12.4784 15.5952C12.7068 15.6898 12.902 15.85 13.0393 16.0555C13.1767 16.2611 13.25 16.5028 13.25 16.75C13.25 17.0815 13.1183 17.3995 12.8839 17.6339C12.6495 17.8683 12.3315 18 12 18V18Z" />
</svg>