<svg width="24" height="24" viewBox="0 0 24 24" fill="none" xmlns="http://www.w3.org/2000/svg">
<rect width="24" height="24" rx="12" fill="#D56D5E"/>
<path d="M16.5373 6.04367C16.7253 5.85564 16.9803 5.75 17.2462 5.75C17.5121 5.75 17.7671 5.85564 17.9551 6.04367C18.1431 6.23169 18.2487 6.4867 18.2487 6.7526C18.2487 7.0185 18.1431 7.27352 17.9551 7.46154L13.4105 11.9994L17.9544 16.5365C18.0479 16.6293 18.1225 16.7401 18.1731 16.8617C18.2239 16.9835 18.25 17.1142 18.25 17.2461C18.25 17.3781 18.2239 17.5087 18.1731 17.6305C18.1225 17.752 18.0484 17.8623 17.9551 17.955C17.8623 18.0484 17.7521 18.1225 17.6306 18.1731C17.5088 18.2239 17.3781 18.25 17.2462 18.25C17.1143 18.25 16.9836 18.2239 16.8618 18.1731C16.7402 18.1224 16.6297 18.0482 16.5369 17.9546L12 13.4101L7.46343 17.9543C7.37057 18.0479 7.25986 18.1224 7.13818 18.1731C7.01638 18.2239 6.88575 18.25 6.7538 18.25C6.62186 18.25 6.49122 18.2239 6.36943 18.1731C6.24794 18.1225 6.13766 18.0484 6.0449 17.9551C5.95157 17.8623 5.87747 17.752 5.82686 17.6305C5.77612 17.5087 5.75 17.3781 5.75 17.2461C5.75 17.1142 5.77612 16.9835 5.82686 16.8617C5.87753 16.7401 5.95176 16.6297 6.04526 16.5368L10.5895 11.9994L6.04504 7.46168C5.85704 7.27366 5.75128 7.0185 5.75128 6.7526C5.75128 6.48671 5.8569 6.23169 6.0449 6.04367C6.23291 5.85564 6.48791 5.75 6.7538 5.75C7.0197 5.75 7.2747 5.85564 7.4627 6.04367L12 10.5887L16.5373 6.04367Z" fill="#09090A"/>
</svg>
