<svg width="99" height="22" viewBox="0 0 99 22" fill="none" xmlns="http://www.w3.org/2000/svg">
<path d="M0.270863 21.5846C-0.495307 20.7119 1.03703 18.9667 1.03703 18.094C1.03703 17.2214 1.80323 13.7309 2.5694 13.7309C3.18233 13.7309 6.21106 13.2146 7.23262 12.9237L9.62471 1.90075C11.1571 1.02812 33.3679 1.11345 47.1009 1.11341C62.2508 1.11336 88.8293 0.641466 90.69 1.51409L92.5507 13.7309L92.6917 13.764C93.9379 14.0565 95.8208 14.4984 96.5375 14.4984C97.4678 14.4984 97.7387 17.2214 97.7387 18.094C97.7387 18.9667 99.5994 20.7119 98.6691 21.5846L44.7088 21.5846L0.270863 21.5846Z" fill="#541AC5"/>
</svg>
